<svg xmlns="http://www.w3.org/2000/svg" xmlns:xlink="http://www.w3.org/1999/xlink" xmlns:lucid="lucid" width="1671.09" height="1082"><g transform="translate(-134.45336696006825 5)" lucid:page-tab-id="0_0"><path d="M0-500h2000v2000H0z" fill="#fff"/><path d="M388.77 2a6 6 0 0 1 6-6h1403.78a6 6 0 0 1 6 6v1068a6 6 0 0 1-6 6H394.77a6 6 0 0 1-6-6z" stroke="#232f3e" stroke-width="2" fill="#fff" fill-opacity="0"/><path d="M388.77-4h56v56h-56V-4z" stroke="#fff" stroke-opacity="0" fill="#232f3e"/><path d="M429.64 37.22h-25c-4.12.05-7.56-3.1-7.88-7.2v-.64c-.16-3.4 1.96-6.38 5.24-7.36v-.66c.12-4.22 2.44-7.75 6.24-9.57 4.12-1.86 8.72-.96 11.8 2.3 1.08 1.1 1.84 2.2 2.44 3.6 1.2-1 2.72-1.32 4.24-.9 2.24.8 3.68 2.74 3.76 5.1 3.7.65 6.33 3.8 6.3 7.56 0 7.07-7.06 7.73-7.14 7.76zm-26.68-13.88c-2.84.6-4.76 3.14-4.6 6.04v.53c.28 3.33 3.08 5.84 6.4 5.76h24.96c3.04-.3 5.4-2.64 5.7-5.7.27-3.43-2.25-6.5-5.7-6.78-.44-.05-.72-.45-.64-.87.08-1.83-1-3.44-2.72-4.13-1.32-.37-2.64.13-3.44 1.24-.2.25-.44.38-.76.33-.28-.05-.48-.24-.6-.5-.6-1.6-1.4-2.85-2.6-4.04-2.68-2.8-6.6-3.6-10.12-2-3.24 1.6-5.2 4.63-5.32 8.24-.04.4-.04.74 0 1.14.04.4-.2.76-.6.84z" stroke="#fff" stroke-opacity="0" fill="#fff"/><use xlink:href="#a" transform="matrix(1,0,0,1,459.76551500377127,16) translate(0 21.52777777777778)"/><use xlink:href="#b" transform="matrix(1,0,0,1,459.76551500377127,16) translate(56.477864583333336 21.52777777777778)"/><path d="M407.5 82a6 6 0 0 1 6-6h1365.05a6 6 0 0 1 6 6v788a6 6 0 0 1-6 6H413.5a6 6 0 0 1-6-6z" fill="#5a6c86" fill-opacity=".13"/><path d="M785 140h120v120H785V140z" stroke="#000" stroke-opacity="0" fill="url(#c)"/><path d="M878.76 170.94v1l-3.24 24.26.16.17c5.68 3.05 8.45 5.53 8.84 7.76.24 1.07-.08 2.06-.7 2.8-.8 1-2.06 1.4-3.88 1.4-1.5 0-3.47-.32-5.84-.9l-3.16 24.52c-1.34 8.42-20.53 9.33-28.74 9.33-8.2 0-27.4-.9-28.74-9.33l-7.82-60.02v-1c0-5.77 15.63-12.2 36.56-12.2 20.92 0 36.56 6.43 36.56 12.2zm-7.82 31.62l3.24-25.43c-6.56 3.96-19.35 5.94-31.98 5.94-12.63 0-25.43-1.98-31.98-5.94l6.95 54.33c.47 2.97 9.24 6.1 25.03 6.1 15.8 0 24.55-3.13 25.03-6.2l3.24-25c-9.32-2.98-21.48-8.6-25.98-10.65-.64.42-1.43.75-2.3.75-2.13 0-3.87-1.82-3.87-3.96 0-2.16 1.74-3.98 3.87-3.98s3.8 1.74 3.95 3.8c4.34 1.98 15.87 7.27 24.8 10.24zm-28.74-23.2c19.58 0 32.3-4.8 32.85-8.26v-.16c-.7-2.15-11.6-8.5-32.85-8.5-21.32 0-32.14 6.44-32.85 8.5v.33c.8 3.38 13.42 8.1 32.85 8.1zm32.37 24.27c3.87 1.08 5.53 1 6.16.9-.4-.57-1.66-1.97-5.76-4.28z" stroke="#000" stroke-opacity="0" fill="#fff"/><use xlink:href="#d" transform="matrix(1,0,0,1,755,269) translate(3.778374023437493 16.216875)"/><use xlink:href="#e" transform="matrix(1,0,0,1,755,269) translate(53.377163085937504 16.216875)"/><use xlink:href="#f" transform="matrix(1,0,0,1,755,269) translate(90.13486816406251 16.216875)"/><use xlink:href="#g" transform="matrix(1,0,0,1,755,269) translate(139.6355712890625 16.216875)"/><use xlink:href="#h" transform="matrix(1,0,0,1,755,269) translate(49.874677734375 36.47162109375)"/><use xlink:href="#i" transform="matrix(1,0,0,1,755,269) translate(75.66310546875 36.47162109375)"/><path d="M520 140h120v120H520V140z" stroke="#fff" stroke-opacity="0" fill="#693cc5"/><path d="M593.82 237.07l-2.85-1.5c1.6-3.02 2.7-5.73 3.64-9.04l3.1.9c-1.03 3.54-2.17 6.4-3.88 9.64zm2.98-29.3c-.57-9.4-3.23-17.23-8.43-25.06l2.66-1.72c5.55 8.28 8.37 16.64 8.97 26.58zm-21.1-38.62c-2.45-1.8-4.67-3.16-7.4-4.5l1.46-2.87c2.92 1.43 5.26 2.86 7.86 4.8zM588.8 211.84c-5.3-5.27-10.82-8.73-17.87-11.2l1-3.04c7.5 2.63 13.38 6.3 19.03 11.92zM602 230.94c-.6-1.6-1.28-3.07-2.02-4.56l2.87-1.42c.83 1.65 1.46 3.08 2.13 4.8z" stroke="#fff" stroke-opacity="0" fill="#fff"/><path d="M592.9 237.84l-1-3.02c4.02-1.36 7.24-3.1 10.6-5.72l1.96 2.53c-3.66 2.85-7.15 4.73-11.55 6.2zM542.04 199.2l-.73-3.1c3.75-.92 7-1.35 10.85-1.43l.07 3.2c-3.6.08-6.66.47-10.18 1.33zM568.3 189.02l-2.7-1.75c2.47-4 5.06-7.1 8.6-10.23l2.1 2.42c-3.3 2.92-5.7 5.8-8 9.56zM592.08 170.05l-1.1-3c2.55-.96 4.76-1.6 7.42-2.12l.6 3.2c-2.5.47-4.55 1.04-6.92 1.92zM560.4 234.4c-2.75-6.38-4-12.25-4.1-19.2.05-2.67.34-4.95.98-7.54.1-.57.24-1.14.35-1.74l3.2.63c-.1.6-.24 1.16-.35 1.76-.6 2.38-.87 4.45-.93 6.9.08 6.53 1.24 12.05 3.8 18.06z" stroke="#fff" stroke-opacity="0" fill="#fff"/><path d="M580 240c-22.08 0-40-17.94-40-39.97 0-.88 0-1.6.08-2.5 1.04-17.05 12.08-31 28.48-35.87 10.8-3.2 21.2-2.1 30.96 3.44 19.28 10.8 26.16 35.17 15.36 54.47-2.72 4.9-5.92 8.65-10.4 12.1-7.36 5.6-15.2 8.33-24.48 8.33zm0-76.82c-3.76 0-6.96.48-10.48 1.6-15.12 4.57-25.28 17.3-26.24 33 0 .8-.08 1.53-.08 2.25 0 20.26 16.48 36.77 36.8 36.77 4.24 0 7.84-.56 11.84-2 4.08-1.37 7.28-3.05 10.64-5.7 9.36-7.2 14.32-17.3 14.32-29.07 0-20.35-16.48-36.85-36.8-36.85z" stroke="#fff" stroke-opacity="0" fill="#fff"/><path d="M583.9 181.5c-3.92 0-7.1-3.2-7.1-7.1 0-3.9 3.18-7.1 7.1-7.1 3.9 0 7.08 3.2 7.08 7.1 0 3.93-3.16 7.1-7.08 7.1zm0-10.97c-2.15 0-3.9 1.74-3.9 3.88 0 2.17 1.75 3.9 3.9 3.9 2.13 0 3.87-1.73 3.87-3.9 0-2.13-1.74-3.87-3.88-3.87zM562.06 203.8c-3.9 0-7.08-3.17-7.08-7.08 0-3.9 3.17-7.1 7.08-7.1 3.92 0 7.1 3.2 7.1 7.1-.02 3.9-3.18 7.07-7.1 7.1zm0-10.96c-2.14 0-3.88 1.74-3.88 3.88 0 2.14 1.74 3.88 3.88 3.88 2.15 0 3.9-1.74 3.9-3.88v-.03c0-2.16-1.75-3.9-3.9-3.9zM597.25 224.32c-3.92 0-7.1-3.16-7.1-7.07-.02-3.92 3.15-7.1 7.07-7.1 3.9-.02 7.1 3.16 7.1 7.07v.03c0 3.9-3.16 7.07-7.07 7.07zm0-10.96h-.02c-2.14 0-3.88 1.75-3.88 3.9 0 2.14 1.74 3.87 3.88 3.87 2.14 0 3.9-1.73 3.9-3.88 0-2.14-1.74-3.9-3.88-3.9z" stroke="#fff" stroke-opacity="0" fill="#fff"/><use xlink:href="#j" transform="matrix(1,0,0,1,490,269) translate(43.6501736111111 17.22222222222222)"/><path d="M784 200H656" stroke="#3a414a" stroke-width="2" fill="none"/><path d="M785 200.97h-1.03v-1.94H785z" stroke="#3a414a" stroke-width=".05" fill="#3a414a"/><path d="M642 200l13-7.5v15z" stroke="#3a414a" stroke-width="2" fill="#3a414a"/><path d="M250.06 321.85H142.82c-4.3 0-7.87-3.52-7.87-7.8V243.8c0-4.28 3.57-7.8 7.87-7.8h107.24c4.3 0 7.87 3.52 7.87 7.8v70.15c0 4.38-3.45 7.9-7.75 7.9h-.12zm-107.1-80.6c-1.5 0-2.72 1.1-2.72 2.56v70.15c0 1.46 1.23 2.67 2.7 2.67H250.2c1.47 0 2.58-1.2 2.58-2.67V243.8c0-1.45-1.1-2.56-2.58-2.56zM248.8 356H144.1c-5.03-.03-9.1-4.08-9.1-9.1v-11.3c0-5.04 4.07-9.15 9.1-9.18h104.7c5.05 0 9.23 4.1 9.23 9.17v11.3c0 5.05-4.18 9.1-9.23 9.1zm-104.7-24.38c-2.08.03-3.8 1.8-3.8 3.97v11.3c0 2.15 1.72 3.86 3.8 3.9h104.7c2.22 0 3.94-1.78 3.94-3.97V335.6c0-2.2-1.72-3.98-3.94-3.98z" stroke="#fff" stroke-opacity="0" fill="#232f3e"/><path d="M245.58 312.07H147.4c-1.45 0-2.58-1.2-2.58-2.6V248.3c0-1.4 1.13-2.6 2.58-2.6h98.18c1.45 0 2.6 1.2 2.6 2.6v61.18c0 1.4-1.15 2.6-2.6 2.6zm-95.5-5.24h92.82v-55.88h-92.8zM216.1 336.2h29.47c1.73 0 2.6.87 2.6 2.6v4.9c0 1.75-.87 2.62-2.6 2.62H216.1c-1.73 0-2.6-.87-2.6-2.6v-4.9c0-1.75.87-2.62 2.6-2.62z" stroke="#fff" stroke-opacity="0" fill="#232f3e"/><use xlink:href="#k" transform="matrix(1,0,0,1,104.95336696006825,365) translate(67.859375 17.22222222222222)"/><path d="M504 200H346.65a6 6 0 0 0-6 6v84a6 6 0 0 1-6 6h-60.72" stroke="#3a414a" stroke-width="2" fill="none"/><path d="M518 200l-13 7.5v-15zM259.93 296l13-7.5v15z" stroke="#3a414a" stroke-width="2" fill="#3a414a"/><path d="M258.93 296h75.7a6 6 0 0 1 6 6v132a6 6 0 0 0 6 6h157.38" stroke="#3a414a" stroke-width="2" fill="none"/><path d="M258.95 296.98h-1.02v-1.96h1.02z" stroke="#3a414a" stroke-width=".05" fill="#3a414a"/><path d="M518 440l-13 7.5v-15z" stroke="#3a414a" stroke-width="2" fill="#3a414a"/><path d="M1050 140h120v120h-120V140z" stroke="#fff" stroke-opacity="0" stroke-width="2" fill="#d86613"/><path d="M1146.8 240h-19.72c-.64 0-1.15-.32-1.4-.88l-27.92-58.32h-11.78c-.9 0-1.6-.72-1.6-1.6v-17.6c0-.88.7-1.6 1.6-1.6h24.65c.64 0 1.15.32 1.4.88l27.8 58.32h6.97c.9 0 1.6.72 1.6 1.6v17.6c0 .88-.7 1.6-1.6 1.6zm-18.7-3.2h17.1v-14.4h-6.4c-.64 0-1.15-.32-1.4-.88l-27.8-58.32h-22v14.4h11.2c.63 0 1.14.32 1.46.88z" stroke="#fff" stroke-opacity="0" stroke-width="2" fill="#fff"/><path d="M1093.96 240h-20.8c-.55 0-1.05-.3-1.37-.73-.33-.54-.33-1.12-.08-1.6l21.78-45.46c.24-.58.8-.92 1.4-.92.65 0 1.18.34 1.46.88l10.4 21.43c.26.43.26.92 0 1.4L1095.42 239c-.2.63-.77 1.02-1.44 1.02zm-18.24-3.22h17.24l10.6-22.36-8.6-17.88z" stroke="#fff" stroke-opacity="0" stroke-width="2" fill="#fff"/><use xlink:href="#l" transform="matrix(1,0,0,1,1020,269) translate(17.517361111111114 17.22222222222222)"/><use xlink:href="#m" transform="matrix(1,0,0,1,1020,269) translate(99.69618055555556 17.22222222222222)"/><use xlink:href="#n" transform="matrix(1,0,0,1,1020,269) translate(122.30034722222223 17.22222222222222)"/><use xlink:href="#o" transform="matrix(1,0,0,1,1020,269) translate(56.31944444444444 38.732638888888886)"/><path d="M1034 200.97h-57.96l-.83.07-.75.18-.73.3-.67.42-.6.5-.5.6-.43.68-.3.73-.18.76-.06.84V397.9l-.1 1.05-.24 1.07-.42 1-.58.94-.7.83-.84.7-.93.58-1 .42-1.08.25-1.06.08H656v-1.95h307.96l.83-.06.75-.18.73-.3.67-.42.6-.5.5-.6.43-.68.3-.73.18-.75.06-.83V205.96l.1-1.05.24-1.06.42-1 .58-.94.7-.83.84-.72.93-.57 1-.42 1.08-.25 1.06-.07H1034z" stroke="#3a414a" stroke-width=".05" fill="#3a414a"/><path d="M655 411.36l-13-7.5 13-7.5z" fill="#3a414a"/><path d="M655.97 413.05l-15.92-9.2 15.92-9.18zm-12.02-9.2l10.06 5.82v-11.62z" stroke="#3a414a" stroke-width=".05" fill="#3a414a"/><path d="M1048 200l-13 7.5v-15z" fill="#3a414a"/><path d="M1049.95 200l-15.9 9.2v-18.4zm-13.97 5.8l10.07-5.8-10.07-5.8z" stroke="#3a414a" stroke-width=".05" fill="#3a414a"/><path d="M656 440h378" stroke="#3a414a" stroke-width="2" fill="none"/><path d="M642 440l13-7.5v15zM1048 440l-13 7.5v-15z" stroke="#3a414a" stroke-width="2" fill="#3a414a"/><path d="M1580 380h120v120h-120V380z" stroke="#000" stroke-opacity="0" fill="url(#p)"/><path d="M1673.76 410.94v1l-3.24 24.26.16.17c5.68 3.05 8.45 5.53 8.84 7.76.24 1.07-.08 2.06-.7 2.8-.8 1-2.06 1.4-3.88 1.4-1.5 0-3.47-.32-5.84-.9l-3.16 24.52c-1.34 8.42-20.53 9.33-28.74 9.33-8.2 0-27.4-.9-28.74-9.33l-7.82-60.02v-1c0-5.77 15.63-12.2 36.56-12.2 20.92 0 36.56 6.43 36.56 12.2zm-7.82 31.62l3.24-25.43c-6.56 3.96-19.35 5.94-31.98 5.94-12.63 0-25.43-1.98-31.98-5.94l6.95 54.32c.47 2.98 9.24 6.12 25.03 6.12 15.8 0 24.56-3.14 25.03-6.2l3.24-25c-9.32-3-21.48-8.6-25.98-10.66-.64.42-1.43.75-2.3.75-2.13 0-3.87-1.82-3.87-3.96 0-2.16 1.74-3.98 3.87-3.98s3.8 1.74 3.95 3.8c4.34 1.98 15.87 7.27 24.8 10.24zm-28.74-23.2c19.58 0 32.3-4.8 32.85-8.26v-.16c-.7-2.15-11.6-8.5-32.85-8.5-21.32 0-32.14 6.44-32.85 8.5v.33c.8 3.38 13.42 8.1 32.85 8.1zm32.37 24.27c3.87 1.08 5.53 1 6.16.9-.4-.57-1.66-1.97-5.76-4.28z" stroke="#000" stroke-opacity="0" fill="#fff"/><use xlink:href="#q" transform="matrix(1,0,0,1,1550,509) translate(20.53880859374999 16.589501953125)"/><use xlink:href="#r" transform="matrix(1,0,0,1,1550,509) translate(63.704794921875 16.589501953125)"/><use xlink:href="#i" transform="matrix(1,0,0,1,1550,509) translate(104.99897460937501 16.589501953125)"/><path d="M1580 140h120v120h-120V140z" stroke="#000" stroke-opacity="0" fill="url(#s)"/><path d="M1673.76 170.94v1l-3.24 24.26.16.17c5.68 3.05 8.45 5.53 8.84 7.76.24 1.07-.08 2.06-.7 2.8-.8 1-2.06 1.4-3.88 1.4-1.5 0-3.47-.32-5.84-.9l-3.16 24.52c-1.34 8.42-20.53 9.33-28.74 9.33-8.2 0-27.4-.9-28.74-9.33l-7.82-60.02v-1c0-5.77 15.63-12.2 36.56-12.2 20.92 0 36.56 6.43 36.56 12.2zm-7.82 31.62l3.24-25.43c-6.56 3.96-19.35 5.94-31.98 5.94-12.63 0-25.43-1.98-31.98-5.94l6.95 54.33c.47 2.97 9.24 6.1 25.03 6.1 15.8 0 24.56-3.13 25.03-6.2l3.24-25c-9.32-2.98-21.48-8.6-25.98-10.65-.64.42-1.43.75-2.3.75-2.13 0-3.87-1.82-3.87-3.96 0-2.16 1.74-3.98 3.87-3.98s3.8 1.74 3.95 3.8c4.34 1.98 15.87 7.27 24.8 10.24zm-28.74-23.2c19.58 0 32.3-4.8 32.85-8.26v-.16c-.7-2.15-11.6-8.5-32.85-8.5-21.32 0-32.14 6.44-32.85 8.5v.33c.8 3.38 13.42 8.1 32.85 8.1zm32.37 24.27c3.87 1.08 5.53 1 6.16.9-.4-.57-1.66-1.97-5.76-4.28z" stroke="#000" stroke-opacity="0" fill="#fff"/><use xlink:href="#t" transform="matrix(1,0,0,1,1550,269) translate(14.15504882812499 16.589501953125)"/><use xlink:href="#r" transform="matrix(1,0,0,1,1550,269) translate(70.08855468750001 16.589501953125)"/><use xlink:href="#i" transform="matrix(1,0,0,1,1550,269) translate(111.38273437500001 16.589501953125)"/><path d="M769 540h-50.5a6 6 0 0 1-6-6v-52.18a6 6 0 0 0-6-6H656" stroke="#3a414a" stroke-width="2" fill="none"/><path d="M783 540l-13 7.5v-15zM642 475.82l13-7.5v15z" stroke="#3a414a" stroke-width="2" fill="#3a414a"/><path d="M1171 957.94l-7.34-6.7-3.66 7 5.62.67 5.38-.96zM1164.9 966.64l26.6 1.68 26.58-1.68-26.6-14.64-26.57 14.64zM1209.47 957.94l6.46 1.14 7.06-.83-6.3-13.22-7.23 12.9z" fill="#3c4929"/><path d="M1182.78 1005.83l15.2-3.54 14.67 3.4-15.2 14.38-14.67-14.25z" fill="#b7ca9d"/><path d="M1184.47 956.6l-7.92-1.35-8.14-10.1 8.15-16.3 7.92 2.44v25.3z" fill="#759c3e"/><path d="M1164.9 938.56v-9.36l26.58-13.2 7.06 14.76-14.08 5.64-7.9-2.4v21l14.92-3 7.97 34.8-7.97 49.2-7.97-3.96v-11.16l-6.93-2.88v-52.56l-11.68 1.2v-9.36l-4.9.96V940.6l4.9-2.04z" fill="#4b612c"/><path d="M1205.27 922.84l5.6 2.76 7.22 3.6v9.36l4.9 2.04v17.64l-4.9-.96v9.36l-6.28-.6-5.4-.6V976h11.67v9.6l-5.43.48v9.72l-13.2 2.64v11.16l13.17-3.84.03 9.84-13.2 5.28v11.16l-7.97 3.96v-84l7.03 1.44V936.4l-7.03-2.4v-18l13.77 6.84z" fill="#759c3e"/><path d="M1199.45 931.15l-7.94-3.16-14.94 5.93 7.92 2.46 14.97-5.25z" fill="#3c4929"/><path d="M1198.53 933.94h7.9v21.02l-7.9-1.57v-19.46z" fill="#4b612c"/><path d="M1176.56 933.93l14.94-5.94 3.13 1.25 4.8 1.9 7 2.78-7.9 2.46-7.03-2.47-7.03 2.46-7.9-2.47z" fill="#3c4929"/><use xlink:href="#u" transform="matrix(1,0,0,1,1160,1036) translate(14.950520833333332 17.22222222222222)"/><path d="M940 916h120v120H940V916z" stroke="#fff" stroke-opacity="0" fill="#cc2264"/><path d="M990.38 992.8h-17.6c-1.84-.05-3.44-.53-5.04-1.48-5.04-3.12-7.84-8.3-7.76-14.27-.32-6.8 3.92-12.73 10.4-14.63v-1.27c.24-8.5 4.8-15.7 12.56-19.34 8.24-3.63 17.36-1.84 23.6 4.7 2.17 2.18 3.6 4.3 4.8 7.04 1.77-1.37 3.7-2.06 5.93-2.06 4.32 0 9.28 3.28 10.16 10.52 4.08 1 12.56 4.33 12.56 15.2.23 5.72-2.57 10.74-7.6 13.43l-1.6-2.8c4-2.16 6.15-6.13 5.9-10.62 0-9.4-7.75-11.72-11.2-12.3-.4-.1-.8-.3-1.03-.68-.24-.32-.32-.75-.24-1.17-.48-5.8-3.84-8.4-7.04-8.4-2.17.05-3.93 1-5.2 2.75-.33.47-.9.7-1.53.63-.56-.1-1.04-.47-1.28-1.05-1.05-3.23-2.66-5.76-4.98-8.2-5.36-5.5-13.04-7.02-20.08-3.96-6.4 3.12-10.32 9.14-10.56 16.28 0 .8.08 1.48.16 2.22.08.84-.48 1.63-1.28 1.8-5.68 1.15-9.6 6.17-9.28 11.93-.16 4.87 2.16 9.04 6.32 11.52 1.04.7 2.08 1 3.28 1h17.6z" stroke="#fff" stroke-opacity="0" fill="#fff"/><path d="M1038.23 1002.4l-11.38-11.4c2.18-4.86 2.05-9.9-.37-14.64-4.28-8.35-14.53-11.68-22.86-7.37-8.33 4.26-11.66 14.5-7.38 22.8 4.28 8.35 14.5 11.67 22.86 7.4l11.2 11.18c1.1 1.13 2.42 1.62 3.97 1.62 1.55 0 2.9-.5 4-1.62h.05c2.14-2.24 2.14-5.8-.1-8zm-26.87-4.54c-7.6 0-13.75-6.15-13.75-13.74 0-7.6 6.16-13.74 13.76-13.74s13.75 6.15 13.75 13.74h.02c0 7.6-6.15 13.74-13.76 13.74zm24.64 10.24c-.96.9-2.5.9-3.46 0l-10.66-10.7c1.37-1.07 2.42-2.14 3.42-3.58l10.7 10.82c.95.94.95 2.47 0 3.46z" stroke="#fff" stroke-opacity="0" fill="#fff"/><path d="M1015.76 976.7l-1.9 2.56c-1.2-.88-2.53-1.2-4-1-2.94.43-4.98 3.18-4.54 6.12.18 1.5.9 2.73 2.13 3.62l-1.85 2.5c-3.76-2.9-4.47-8.3-1.58-12.05 2.83-3.67 8.03-4.46 11.8-1.76z" stroke="#fff" stroke-opacity="0" fill="#fff"/><use xlink:href="#v" transform="matrix(1,0,0,1,910,1045) translate(36.37152777777777 17.22222222222222)"/><use xlink:href="#w" transform="matrix(1,0,0,1,910,1045) translate(41.37152777777777 17.22222222222222)"/><path d="M1191.5 915v-13a6 6 0 0 0-6-6h-83.48a6 6 0 0 1-6-6v-13" stroke="#3a414a" stroke-width="2" fill="none"/><path d="M1192.47 916.48l-.97-.48v.04l-.02-.04-.95.48v-1.5h1.94zM1097 877.03h-1.95V876h1.95z" stroke="#3a414a" stroke-width=".05" fill="#3a414a"/><path d="M1000 915v-13a6 6 0 0 1 6-6h84.02a6 6 0 0 0 6-6v-13" stroke="#3a414a" stroke-width="2" fill="none"/><path d="M1000.98 916H999v-1.03h1.96zM1097 877.03h-1.95V876h1.95zM341.6 733.96l.08.83.18.75.3.73.42.67.5.6.6.5.68.43.73.3.75.18.83.06h20.8V741H346.6l-1.05-.1-1.07-.24-1-.42-.94-.58-.84-.7-.7-.84-.58-.93-.42-1-.25-1.08-.1-1.06v-20.6h1.96zm88.36 7H388.3v-1.94h41.66zm62.5 0h-41.67v-1.94h41.64zm62.47 0h-41.66v-1.94h41.66zm62.5 0h-41.67v-1.94h41.66zm62.48 0h-41.65v-1.94h41.66zm312.45 0H950.7v-1.94h41.65zm41.66 0h-20.82v-1.94H1034zm-104.14 0H903.6v-1.94h26.26zm-588.25-48.1h-1.94V651.7h1.95zm0-61.72h-1.94V590h1.95zm0-61.7h-1.94v-41.15h1.95zm0-61.73h-1.94v-41.13h1.95zm0-61.7h-1.94v-41.14h1.95zm0-61.7h-1.94v-41.16h1.95zm-5.87-89.2l1.06.26 1 .42.94.58.83.7.7.84.6.93.4 1 .26 1.08.08 1.06v20.6h-1.94v-20.52l-.06-.83-.2-.75-.3-.73-.4-.67-.5-.6-.6-.5-.68-.43-.73-.3-.78-.18-.82-.06h-25.2v-1.96h25.28zM284.16 297h-25.23v-1.96h25.23z" stroke="#3a414a" stroke-width=".05" fill="#3a414a"/><path d="M258.95 296.98h-1.02v-1.96h1.02z" fill="#3a414a"/><path stroke="#3a414a" stroke-width=".05" fill="#3a414a"/><path d="M1048 740l-13 7.5v-15z" fill="#3a414a"/><path d="M1049.95 740l-15.9 9.2v-18.4zm-13.97 5.8l10.07-5.8-10.07-5.8z" stroke="#3a414a" stroke-width=".05" fill="#3a414a"/><use xlink:href="#x" transform="matrix(1,0,0,1,698.9981246872705,729.2447916666666) translate(0 17.22222222222222)"/><use xlink:href="#y" transform="matrix(1,0,0,1,698.9981246872705,729.2447916666666) translate(65.12152777777779 17.22222222222222)"/><use xlink:href="#z" transform="matrix(1,0,0,1,698.9981246872705,729.2447916666666) translate(90.65104166666669 17.22222222222222)"/><path d="M1564 200.97h-50.46l-.83.07-.75.18-.73.3-.67.42-.6.5-.5.6-.42.68-.3.73-.2.76-.06.84v228l-.08 1.05-.26 1.06-.42 1-.58.94-.7.83-.84.7-.93.6-1 .4-1.08.26-1.06.08H1436v-1.96h65.46l.83-.06.75-.18.73-.3.67-.42.6-.5.5-.6.42-.68.3-.73.2-.76.06-.84v-228l.08-1.05.26-1.06.42-1 .58-.94.7-.83.84-.72.93-.57 1-.42 1.08-.25 1.06-.07H1564z" stroke="#3a414a" stroke-width=".05" fill="#3a414a"/><path d="M1436.03 440.98H1435v-1.96h1.03z" fill="#3a414a"/><path stroke="#3a414a" stroke-width=".05" fill="#3a414a"/><path d="M1578 200l-13 7.5v-15z" fill="#3a414a"/><path d="M1579.95 200l-15.9 9.2v-18.4zm-13.97 5.8l10.07-5.8-10.07-5.8z" stroke="#3a414a" stroke-width=".05" fill="#3a414a"/><path d="M1436 440h128" stroke="#3a414a" stroke-width="2" fill="none"/><path d="M1436.03 440.98H1435v-1.96h1.03z" stroke="#3a414a" stroke-width=".05" fill="#3a414a"/><path d="M1578 440l-13 7.5v-15z" stroke="#3a414a" stroke-width="2" fill="#3a414a"/><path d="M1192.83 740.98H1171V739h21.83zm50.64-6.94l-.08 1.05-.26 1.06-.42 1-.58.94-.7.83-.84.72-.93.57-1 .42-1.08.25-1.06.08h-21.87V739h21.8l.82-.06.75-.18.73-.3.67-.42.6-.5.5-.6.42-.68.3-.73.2-.76.06-.84V714.8h1.94zm0-38.44h-1.94v-38.4h1.94zm0-66.38h-1.94V599.6h1.94zm0-48.82h-1.94V542h1.94zm0-57.6h-1.94v-38.4h1.94zm21.87-81.82h-16.8l-.83.06-.75.18-.73.3-.67.42-.6.5-.5.6-.42.68-.3.73-.2.76-.06.84v19.16h-1.94v-19.24l.08-1.05.26-1.06.42-1 .58-.94.7-.83.84-.7.93-.6 1-.4 1.08-.26 1.06-.08h16.88zm33.67 0h-16.83v-1.96H1299z" stroke="#3a414a" stroke-width=".05" fill="#3a414a"/><path d="M1171.03 740.98H1170V739h1.03z" fill="#3a414a"/><path stroke="#3a414a" stroke-width=".05" fill="#3a414a"/><path d="M1313 440l-13 7.5v-15z" fill="#3a414a"/><path d="M1314.95 440l-15.9 9.2v-18.4zm-13.97 5.8l10.07-5.8-10.07-5.8z" stroke="#3a414a" stroke-width=".05" fill="#3a414a"/><use xlink:href="#A" transform="matrix(1,0,0,1,1212.1961805555557,629.2187869096788) translate(0 17.22222222222222)"/><path d="M341.6 853.96l.08.83.18.75.3.73.42.67.5.6.6.5.68.43.73.3.75.18.83.06h20.4V861H346.6l-1.05-.1-1.07-.24-1-.42-.94-.58-.84-.7-.7-.84-.58-.93-.42-1-.25-1.08-.1-1.06v-20.48h1.96zm86.78 7H387.5v-1.94h40.88zm61.3 0H448.8v-1.94h40.88zm61.3 0H510.1v-1.94H551zm61.3 0h-40.86v-1.94h40.87zm61.3 0h-40.86v-1.94h40.87zm61.3 0h-40.86v-1.94h40.87zm61.3 0h-40.85v-1.94h40.86zm61.32 0h-40.87v-1.94h40.87zm61.3 0h-40.87v-1.94h40.87zm61.3 0h-40.87v-1.94h40.87zm61.3 0h-40.86v-1.94h40.87zm61.3 0h-40.86v-1.94h40.87zm61.3 0h-40.86v-1.94H1164zm61.3 0h-40.86v-1.94h40.87zm61.32 0h-40.87v-1.94h40.87zm306.5 0h-40.86v-1.94h40.87zm47.86-6.92l-.1 1.05-.24 1.06-.42 1-.58.94-.7.83-.84.72-.93.57-1 .42-1.08.25-1.06.08h-20.47V859h20.4l.82-.06.75-.18.73-.3.67-.42.6-.5.5-.6.42-.68.3-.73.2-.76.06-.84V834.4h1.94zm-109.15 6.94h-14.2V859h14.2zm109.14-46.2h-1.94v-39.22h1.94zM341.6 813.1h-1.94v-40.88h1.95zM1641 755.95h-1.95v-39.22h1.94zM341.6 751.78h-1.94v-40.9h1.95zM1641 697.1h-1.95v-39.2h1.94zM341.6 690.45h-1.94v-40.88h1.95zM1641 638.28h-1.95v-39.22h1.94zM341.6 629.1h-1.94v-40.88h1.95zM1641 579.45h-1.95v-39.22h1.94zM341.6 567.78h-1.94v-40.9h1.95zM1641 510.38h-1.95V501h1.94zM341.6 506.43h-1.94v-40.88h1.95zm0-61.33h-1.94v-40.88h1.95zm0-61.32h-1.94v-40.9h1.95zm-5.87-88.67l1.06.26 1 .42.94.58.83.7.7.84.6.93.4 1 .26 1.08.08 1.06v20.48h-1.94v-20.4l-.06-.83-.2-.75-.3-.73-.4-.67-.5-.6-.6-.5-.68-.43-.73-.3-.78-.18-.82-.06h-20.2v-1.96h20.28zM294.16 297h-20.24v-1.96h20.24z" stroke="#3a414a" stroke-width=".05" fill="#3a414a"/><path d="M272.92 303.5l-13-7.5 13-7.5z" fill="#3a414a"/><path d="M273.9 305.2l-15.92-9.2 15.9-9.2zm-12.02-9.2l10.06 5.8v-11.6z" stroke="#3a414a" stroke-width=".05" fill="#3a414a"/><path d="M1640.97 501.03h-1.94V500h1.94z" fill="#3a414a"/><path stroke="#3a414a" stroke-width=".05" fill="#3a414a"/><use xlink:href="#B" transform="matrix(1,0,0,1,1288.9159059293834,849.2447916666666) translate(0 17.22222222222222)"/><use xlink:href="#y" transform="matrix(1,0,0,1,1288.9159059293834,849.2447916666666) translate(89.22743055555557 17.22222222222222)"/><use xlink:href="#z" transform="matrix(1,0,0,1,1288.9159059293834,849.2447916666666) translate(114.75694444444446 17.22222222222222)"/><path d="M520 380h120v120H520V380z" stroke="#fff" stroke-opacity="0" fill="#693cc5"/><path d="M597.6 478.42c-.35 0-.64-.15-.93-.3-.43-.3-.67-.77-.67-1.3v-73.63c0-.55.3-1.08.77-1.4.48-.3 1.08-.3 1.6-.07l20.8 10.22c.56.23.9.77.9 1.38v56.56c.02.76-.4 1.37-1.1 1.6l-20.8 6.92h-.56zm1.63-72.62v68.78l17.6-5.84v-54.4zM562.4 478.42h-.52l-20.8-6.92c-.67-.23-1.1-.92-1.08-1.6v-56.57c0-.6.33-1.15.9-1.38l20.8-10.22c.52-.23 1.1-.23 1.6.08.48.3.75.85.75 1.4v73.6c0 .54-.24 1-.67 1.3-.3.24-.6.32-1 .32zm-19.2-9.6l17.6 5.83V405.8l-17.6 8.6z" stroke="#fff" stroke-opacity="0" fill="#fff"/><path d="M596 424h-4.8v-3.2h4.8zm-9.6 0h-4.8v-3.2h4.8zm-9.6 0H572v-3.2h4.8zm-9.6 0h-4.8v-3.2h4.8zM596 459.2h-4.8V456h4.8zm-9.6 0h-4.8V456h4.8zm-9.6 0H572V456h4.8zm-9.6 0h-4.8V456h4.8zM572.98 445.5l-6.02-5.13c-.67-.57-.75-1.6-.18-2.26l.18-.17 6-5.13 2.08 2.43-4.58 3.97 4.58 3.92zM587.04 445.5l-2.08-2.42 4.57-3.88-4.6-3.9 2.1-2.5 6 5.12c.68.57.76 1.6.2 2.26-.07.06-.12.12-.2.17z" stroke="#fff" stroke-opacity="0" fill="#fff"/><path d="M575.3 448.87l6.35-18.8 3.03 1.03-6.35 18.8-3.04-1.03z" stroke="#fff" stroke-opacity="0" stroke-width=".32" fill="#fff"/><use xlink:href="#C" transform="matrix(1,0,0,1,490,509) translate(36.70572916666667 17.22222222222222)"/><use xlink:href="#D" transform="matrix(1,0,0,1,490,509) translate(70.09982638888889 17.22222222222222)"/><path d="M1315 380h120v120h-120V380z" stroke="#fff" stroke-opacity="0" stroke-width="2" fill="#d86613"/><path d="M1411.8 480h-19.72c-.64 0-1.15-.32-1.4-.88l-27.92-58.32h-11.78c-.9 0-1.6-.72-1.6-1.6v-17.6c0-.88.7-1.6 1.6-1.6h24.65c.64 0 1.15.32 1.4.88l27.8 58.32h6.97c.9 0 1.6.72 1.6 1.6v17.6c0 .88-.7 1.6-1.6 1.6zm-18.7-3.2h17.1v-14.4h-6.4c-.64 0-1.15-.32-1.4-.88l-27.8-58.32h-22v14.4h11.2c.63 0 1.14.32 1.46.88z" stroke="#fff" stroke-opacity="0" stroke-width="2" fill="#fff"/><path d="M1358.96 480h-20.8c-.55 0-1.05-.3-1.37-.73-.33-.54-.33-1.12-.08-1.6l21.78-45.46c.24-.58.8-.92 1.4-.92.65 0 1.18.34 1.46.88l10.4 21.43c.26.43.26.92 0 1.4L1360.42 479c-.2.63-.77 1.02-1.44 1.02zm-18.24-3.22h17.24l10.6-22.36-8.6-17.88z" stroke="#fff" stroke-opacity="0" stroke-width="2" fill="#fff"/><g><use xlink:href="#E" transform="matrix(1,0,0,1,1285,509) translate(18.4375 17.22222222222222)"/><use xlink:href="#F" transform="matrix(1,0,0,1,1285,509) translate(77.52604166666667 17.22222222222222)"/><use xlink:href="#n" transform="matrix(1,0,0,1,1285,509) translate(121.38020833333334 17.22222222222222)"/><use xlink:href="#o" transform="matrix(1,0,0,1,1285,509) translate(56.31944444444444 38.732638888888886)"/></g><path d="M1050 380h120v120h-120V380z" stroke="#fff" stroke-opacity="0" stroke-width="2" fill="#d86613"/><path d="M1146.8 480h-19.72c-.64 0-1.15-.32-1.4-.88l-27.92-58.32h-11.78c-.9 0-1.6-.72-1.6-1.6v-17.6c0-.88.7-1.6 1.6-1.6h24.65c.64 0 1.15.32 1.4.88l27.8 58.32h6.97c.9 0 1.6.72 1.6 1.6v17.6c0 .88-.7 1.6-1.6 1.6zm-18.7-3.2h17.1v-14.4h-6.4c-.64 0-1.15-.32-1.4-.88l-27.8-58.32h-22v14.4h11.2c.63 0 1.14.32 1.46.88z" stroke="#fff" stroke-opacity="0" stroke-width="2" fill="#fff"/><path d="M1093.96 480h-20.8c-.55 0-1.05-.3-1.37-.73-.33-.54-.33-1.12-.08-1.6l21.78-45.46c.24-.58.8-.92 1.4-.92.65 0 1.18.34 1.46.88l10.4 21.43c.26.43.26.92 0 1.4L1095.42 479c-.2.63-.77 1.02-1.44 1.02zm-18.24-3.22h17.24l10.6-22.36-8.6-17.88z" stroke="#fff" stroke-opacity="0" stroke-width="2" fill="#fff"/><g><use xlink:href="#l" transform="matrix(1,0,0,1,1020,509) translate(18.849826388888886 17.22222222222222)"/><use xlink:href="#G" transform="matrix(1,0,0,1,1020,509) translate(101.02864583333333 17.22222222222222)"/><use xlink:href="#H" transform="matrix(1,0,0,1,1020,509) translate(3.7282986111111 38.732638888888886)"/><use xlink:href="#n" transform="matrix(1,0,0,1,1020,509) translate(136.08940972222223 38.732638888888886)"/><use xlink:href="#o" transform="matrix(1,0,0,1,1020,509) translate(56.31944444444444 60.24305555555555)"/></g><path d="M1050 680h120v120h-120V680z" stroke="#000" stroke-opacity="0" fill="url(#I)"/><path d="M1143.76 710.94v1l-3.24 24.26.16.17c5.68 3.05 8.45 5.53 8.84 7.76.24 1.07-.08 2.06-.7 2.8-.8 1-2.06 1.4-3.88 1.4-1.5 0-3.47-.32-5.84-.9l-3.16 24.52c-1.34 8.42-20.53 9.33-28.74 9.33-8.2 0-27.4-.9-28.74-9.33l-7.82-60.02v-1c0-5.77 15.63-12.2 36.56-12.2 20.92 0 36.56 6.43 36.56 12.2zm-7.82 31.62l3.24-25.43c-6.56 3.96-19.35 5.95-31.98 5.95-12.63 0-25.43-2-31.98-5.95l6.95 54.33c.47 2.97 9.24 6.1 25.03 6.1 15.8 0 24.56-3.13 25.03-6.2l3.24-25c-9.32-2.98-21.48-8.6-25.98-10.65-.64.42-1.43.75-2.3.75-2.13 0-3.87-1.82-3.87-3.96 0-2.16 1.74-3.98 3.87-3.98s3.8 1.74 3.95 3.8c4.34 1.98 15.87 7.27 24.8 10.24zm-28.74-23.2c19.58 0 32.3-4.8 32.85-8.26v-.16c-.7-2.15-11.6-8.5-32.85-8.5-21.32 0-32.14 6.43-32.85 8.5v.33c.8 3.38 13.42 8.1 32.85 8.1zm32.37 24.27c3.87 1.08 5.53 1 6.16.9-.4-.57-1.66-1.97-5.76-4.28z" stroke="#000" stroke-opacity="0" fill="#fff"/><g><use xlink:href="#J" transform="matrix(1,0,0,1,1020,809) translate(26.436225585937493 16.216875)"/><use xlink:href="#g" transform="matrix(1,0,0,1,1020,809) translate(116.9777197265625 16.216875)"/><use xlink:href="#i" transform="matrix(1,0,0,1,1020,809) translate(62.7688916015625 36.47162109375)"/></g><path d="M785 480h120v120H785V480z" stroke="#fff" stroke-opacity="0" stroke-width="2" fill="#d86613"/><path d="M881.8 580h-19.72c-.64 0-1.15-.32-1.4-.88l-27.92-58.32h-11.78c-.9 0-1.6-.72-1.6-1.6v-17.6c0-.88.7-1.6 1.6-1.6h24.65c.64 0 1.15.32 1.4.88l27.8 58.32h6.97c.9 0 1.6.72 1.6 1.6v17.6c0 .88-.7 1.6-1.6 1.6zm-18.7-3.2h17.1v-14.4h-6.4c-.64 0-1.15-.32-1.4-.88l-27.8-58.32h-22v14.4h11.2c.63 0 1.14.32 1.46.88z" stroke="#fff" stroke-opacity="0" stroke-width="2" fill="#fff"/><path d="M828.96 580h-20.8c-.55 0-1.05-.3-1.37-.73-.33-.54-.33-1.12-.08-1.6l21.78-45.46c.24-.58.8-.92 1.4-.92.65 0 1.18.34 1.46.88l10.4 21.43c.26.43.26.92 0 1.4L830.42 579c-.2.63-.77 1.02-1.44 1.02zm-18.24-3.22h17.24l10.6-22.36-8.6-17.88z" stroke="#fff" stroke-opacity="0" stroke-width="2" fill="#fff"/><g><use xlink:href="#l" transform="matrix(1,0,0,1,755,609) translate(6.796875 17.22222222222222)"/><use xlink:href="#K" transform="matrix(1,0,0,1,755,609) translate(88.97569444444444 17.22222222222222)"/><use xlink:href="#H" transform="matrix(1,0,0,1,755,609) translate(3.7282986111111 38.732638888888886)"/><use xlink:href="#n" transform="matrix(1,0,0,1,755,609) translate(136.08940972222223 38.732638888888886)"/><use xlink:href="#o" transform="matrix(1,0,0,1,755,609) translate(56.31944444444444 60.24305555555555)"/></g><path d="M1315 140h120v120h-120V140z" stroke="#000" stroke-opacity="0" fill="#c925d1"/><path d="M1393.14 222.26c-5.04 4.03-15.55 6.22-25.56 6.22-10.08 0-20.6-2.2-25.56-6.22v8.15c0 4.12 10.44 8.66 25.56 8.66 15.05 0 25.56-4.54 25.56-8.65v-8.14zm0-15.46h2.96c0 1.77-.87 3.45-2.67 5.04 2.16 1.85 2.67 3.7 2.67 5.04v13.53c0 7.57-14.7 11.6-28.52 11.6s-28.5-4.03-28.58-11.5v-13.62c0-1.34.58-3.2 2.66-5.04-2.08-1.93-2.66-3.7-2.66-5.04v-13.6c0-1.26.58-3.1 2.66-5.04-2.08-1.85-2.66-3.7-2.66-4.96V169.6c0-7.57 14.76-11.6 28.58-11.6 7.78 0 15.34 1.26 20.6 3.44l-1.16 2.7c-4.9-2.02-12.02-3.2-19.44-3.2-15.12 0-25.56 4.54-25.56 8.65 0 4.02 10.44 8.56 25.56 8.56h1.16l.14 2.94c-.43.08-.86.08-1.3.08-10.08 0-20.6-2.18-25.56-6.2v8.14c0 1.6 1.6 2.94 2.96 3.78 4.03 2.6 11.23 4.36 19.3 4.7l-.15 3.02c-8.14-.42-15.27-2.1-19.87-4.7-1.16.84-2.24 2.02-2.24 3.28 0 4.1 10.44 8.65 25.56 8.65 1.44 0 2.96-.1 4.32-.17l.22 2.94c-1.44.17-3.02.17-4.54.17-10.08 0-20.6-2.1-25.56-6.14v8.14c0 1.6 1.6 2.94 2.96 3.78 4.6 2.94 13.24 4.8 22.6 4.8h.65v2.93h-.65c-9.5 0-18.14-1.75-23.4-4.7-1.08.85-2.16 2.02-2.16 3.28 0 4.04 10.44 8.57 25.56 8.57 15.05 0 25.56-4.45 25.56-8.57 0-1.26-1.08-2.43-2.23-3.27-.7.43-1.5.85-2.36 1.18l-1.16-2.77c1.08-.4 2.02-.9 2.8-1.42 1.3-.84 2.96-2.26 2.96-3.78zm12.82-21.75h-8.35c-.5 0-1-.25-1.3-.67-.28-.42-.28-.93-.13-1.43l5.1-12.77h-19.36l-9 17.9h9.6c.5 0 .92.24 1.2.58.3.42.37.92.23 1.34l-8.57 26.63 30.6-31.58zm4.6-.5l-37.5 38.72c-.3.33-.65.5-1.08.5-.22 0-.5-.08-.72-.25-.65-.34-.87-1-.72-1.68l9.93-30.83h-9.93c-.58 0-1-.24-1.3-.66-.3-.42-.3-1-.07-1.43l10.5-20.82c.23-.5.73-.84 1.3-.84h22.54c.52 0 .95.25 1.24.67.28.43.36.94.14 1.36l-5.1 12.76h9.7c.58 0 1.16.42 1.38.93.28.6.14 1.17-.3 1.6zM1344.2 231l1.52-2.6c1.8 1.08 4.32 2 7.2 2.68l-.8 2.94c-3.1-.84-5.83-1.85-7.92-3.02zm7.92-20.84l.8-2.85c-2.88-.66-5.4-1.6-7.2-2.68l-1.52 2.6c2.1 1.18 4.83 2.2 7.92 2.94zm-7.92-26.8l1.52-2.5c1.8 1 4.32 1.92 7.2 2.68l-.8 2.85c-3.1-.76-5.83-1.77-7.92-3.03z" stroke="#000" stroke-opacity="0" fill="#fff"/><g><use xlink:href="#L" transform="matrix(1,0,0,1,1285,269) translate(27.482638888888886 17.22222222222222)"/><use xlink:href="#M" transform="matrix(1,0,0,1,1285,269) translate(84.20138888888889 17.22222222222222)"/><use xlink:href="#N" transform="matrix(1,0,0,1,1285,269) translate(106.80555555555556 17.22222222222222)"/><use xlink:href="#O" transform="matrix(1,0,0,1,1285,269) translate(6.2282986111111 43.034722222222214)"/><use xlink:href="#P" transform="matrix(1,0,0,1,1285,269) translate(79.76996527777777 43.034722222222214)"/></g><path d="M1171 200h128" stroke="#3a414a" stroke-width="2" fill="none"/><path d="M1171.03 200.97H1170v-1.94h1.03z" stroke="#3a414a" stroke-width=".05" fill="#3a414a"/><path d="M1313 200l-13 7.5v-15z" stroke="#3a414a" stroke-width="2" fill="#3a414a"/><defs><path d="M52 0l541-1490h220L1361 0h-200l-149-416H398L254 0H52zm404-582h497c-103-290-145-390-251-756-108 377-145 460-246 756" id="Q"/><path d="M458 0L52-1490h194c108 439 233 855 324 1313 92-459 221-873 331-1313h216c110 438 234 854 330 1307 92-455 216-869 323-1307h196L1558 0h-221l-256-944c-26-95-50-200-73-331-22 122-44 223-73 331L680 0H458" id="R"/><path d="M657 26c-323 0-524-166-541-416h195c15 169 171 246 346 246 202 0 356-106 356-265 5-203-294-238-475-293-239-73-380-191-380-389 0-252 224-419 512-419 294 0 499 171 508 396H992c-17-145-151-228-328-228-193 0-321 102-321 242 0 156 175 211 284 241l149 41c160 44 422 134 422 412 0 244-197 432-541 432" id="S"/><g id="a"><use transform="matrix(0.010850694444444444,0,0,0.010850694444444444,0,0)" xlink:href="#Q"/><use transform="matrix(0.010850694444444444,0,0,0.010850694444444444,14.073350694444445,0)" xlink:href="#R"/><use transform="matrix(0.010850694444444444,0,0,0.010850694444444444,35.970052083333336,0)" xlink:href="#S"/></g><path d="M783 20c-382 0-661-292-661-764 0-473 279-766 661-766 302 0 548 182 601 489h-190c-42-204-217-313-411-313-268 0-476 208-476 590 0 381 209 588 476 588 195 0 369-110 411-313h190c-52 303-296 489-601 489" id="T"/><path d="M338-1490V0H158v-1490h180" id="U"/><path d="M613 24c-304 0-509-231-509-576 0-350 205-580 509-580 305 0 511 230 511 580 0 345-206 576-511 576zm0-161c226 0 329-195 329-415 0-222-103-419-329-419-223 0-326 196-326 419 0 220 103 415 326 415" id="V"/><path d="M537 14c-226 0-379-139-379-422v-710h180v695c0 172 97 275 253 275 160 0 281-109 281-300v-670h181V0H879v-209C806-46 684 14 537 14" id="W"/><path d="M577 24c-279 0-473-224-473-580 0-354 195-576 474-576 218 0 287 134 324 193h14v-551h180V0H922v-173h-20C865-111 790 24 577 24zm27-161c203 0 314-172 314-421 0-247-108-413-314-413-212 0-317 181-317 413 0 235 108 421 317 421" id="X"/><g id="b"><use transform="matrix(0.010850694444444444,0,0,0.010850694444444444,0,0)" xlink:href="#T"/><use transform="matrix(0.010850694444444444,0,0,0.010850694444444444,16.23263888888889,0)" xlink:href="#U"/><use transform="matrix(0.010850694444444444,0,0,0.010850694444444444,21.614583333333336,0)" xlink:href="#V"/><use transform="matrix(0.010850694444444444,0,0,0.010850694444444444,34.939236111111114,0)" xlink:href="#W"/><use transform="matrix(0.010850694444444444,0,0,0.010850694444444444,48.07942708333333,0)" xlink:href="#X"/></g><linearGradient gradientUnits="userSpaceOnUse" id="c" x1="785" y1="260" x2="905" y2="140"><stop offset="0%" stop-color="#1b660f"/><stop offset="100%" stop-color="#6cae3e"/></linearGradient><path d="M180 0v-1490h510c348 0 508 194 508 460 0 198-88 351-276 417L1256 0h-220L726-579c-117 2-238 0-356 1V0H180zm190-747h312c235 0 327-108 327-283 0-177-92-293-329-293H370v576" id="Y"/><path d="M628 24c-324 0-524-230-524-574 0-343 198-582 503-582 237 0 487 146 487 559v75H286c9 234 145 362 343 362 132 0 231-58 273-172l174 48C1024-91 857 24 628 24zM287-650h624c-17-190-120-322-304-322-192 0-309 151-320 322" id="Z"/><path d="M471 26C259 26 90-98 90-318c0-256 228-303 435-329 202-27 287-16 287-108 0-139-79-219-234-219-161 0-248 86-283 164l-173-57c86-203 278-265 451-265 150 0 419 46 419 395V0H815v-152h-12C765-73 660 26 471 26zm31-159c199 0 310-134 310-271v-155c-30 35-226 55-295 64-131 17-246 59-246 186 0 116 97 176 231 176" id="aa"/><path d="M613 24c-304 0-509-231-509-576 0-350 205-580 509-580 216 0 392 114 453 309l-173 49c-33-115-133-197-280-197-223 0-326 196-326 419 0 220 103 415 326 415 150 0 252-85 285-206l172 49C1010-95 832 24 613 24" id="ab"/><path d="M598-1118v154H368v674c0 100 37 144 132 144 23 0 62-6 92-12L629-6c-37 13-88 20-134 20-193 0-307-107-307-290v-688H20v-154h168v-266h180v266h230" id="ac"/><g id="d"><use transform="matrix(0.008173828125000001,0,0,0.008173828125000001,0,0)" xlink:href="#Y"/><use transform="matrix(0.008173828125000001,0,0,0.008173828125000001,10.527890625000001,0)" xlink:href="#Z"/><use transform="matrix(0.008173828125000001,0,0,0.008173828125000001,20.45091796875,0)" xlink:href="#aa"/><use transform="matrix(0.008173828125000001,0,0,0.008173828125000001,29.850820312500005,0)" xlink:href="#ab"/><use transform="matrix(0.008173828125000001,0,0,0.008173828125000001,39.41419921875001,0)" xlink:href="#ac"/></g><path d="M158 418v-1536h174v179h20c37-59 106-193 324-193 279 0 474 222 474 576 0 356-194 580-473 580-213 0-288-135-325-197h-14v591H158zm492-555c209 0 317-186 317-421 0-232-105-413-317-413-206 0-314 166-314 413 0 249 111 421 314 421" id="ad"/><g id="e"><use transform="matrix(0.008173828125000001,0,0,0.008173828125000001,0,0)" xlink:href="#Q"/><use transform="matrix(0.008173828125000001,0,0,0.008173828125000001,11.549619140625001,0)" xlink:href="#ad"/><use transform="matrix(0.008173828125000001,0,0,0.008173828125000001,21.799599609375,0)" xlink:href="#ad"/></g><path d="M158 0v-1118h180V0H158zm91-1301c-68 0-125-53-125-119s57-119 125-119c69 0 126 53 126 119s-57 119-126 119" id="ae"/><g id="f"><use transform="matrix(0.008173828125000001,0,0,0.008173828125000001,0,0)" xlink:href="#S"/><use transform="matrix(0.008173828125000001,0,0,0.008173828125000001,10.740410156250002,0)" xlink:href="#ac"/><use transform="matrix(0.008173828125000001,0,0,0.008173828125000001,16.298613281250002,0)" xlink:href="#aa"/><use transform="matrix(0.008173828125000001,0,0,0.008173828125000001,25.698515625000006,0)" xlink:href="#ac"/><use transform="matrix(0.008173828125000001,0,0,0.008173828125000001,31.174980468750007,0)" xlink:href="#ae"/><use transform="matrix(0.008173828125000001,0,0,0.008173828125000001,35.22919921875001,0)" xlink:href="#ab"/></g><path d="M180 0v-1490h901v168H370v510h643v168H370V0H180" id="af"/><path d="M538 24C308 24 148-78 108-271l171-41c32 123 123 178 257 178 156 0 256-77 256-169 0-77-54-128-164-154l-186-44c-203-48-300-148-300-305 0-192 176-326 414-326 230 0 351 112 402 269l-163 42c-31-80-94-158-238-158-133 0-233 69-233 162 0 83 57 129 188 160l169 40c203 48 298 149 298 302 0 196-179 339-441 339" id="ag"/><g id="g"><use transform="matrix(0.008173828125000001,0,0,0.008173828125000001,0,0)" xlink:href="#af"/><use transform="matrix(0.008173828125000001,0,0,0.008173828125000001,9.882158203125002,0)" xlink:href="#ae"/><use transform="matrix(0.008173828125000001,0,0,0.008173828125000001,13.936376953125002,0)" xlink:href="#U"/><use transform="matrix(0.008173828125000001,0,0,0.008173828125000001,17.990595703125003,0)" xlink:href="#Z"/><use transform="matrix(0.008173828125000001,0,0,0.008173828125000001,27.750146484374998,0)" xlink:href="#ag"/></g><path d="M635 20c-292 0-500-160-510-396h192c11 142 145 229 315 229 187 0 323-105 323-260 0-161-125-274-346-274H488v-165h121c174 0 294-100 294-254 0-148-104-245-266-245-152 0-291 85-297 230H157c8-234 222-395 484-395 278 0 448 188 448 400 0 168-95 291-247 336v12c190 31 301 169 301 357 0 244-216 425-508 425" id="ah"/><g id="h"><use transform="matrix(0.008173828125000001,0,0,0.008173828125000001,0,0)" xlink:href="#S"/><use transform="matrix(0.008173828125000001,0,0,0.008173828125000001,10.740410156250002,0)" xlink:href="#ah"/></g><path d="M180 0v-1490h528c311 0 458 177 458 395 0 191-114 278-244 313v14c139 9 302 137 302 371 0 225-148 397-499 397H180zm190-168h350c232 0 321-102 321-231 0-149-120-277-311-277H370v508zm0-668h328c160 0 286-101 286-255 0-129-87-231-280-231H370v486" id="ai"/><path d="M158 0v-1490h180v865h22l478-493h223L593-638 1096 0H865L456-523 338-412V0H158" id="aj"/><g id="i"><use transform="matrix(0.008173828125000001,0,0,0.008173828125000001,0,0)" xlink:href="#ai"/><use transform="matrix(0.008173828125000001,0,0,0.008173828125000001,10.952929687500001,0)" xlink:href="#W"/><use transform="matrix(0.008173828125000001,0,0,0.008173828125000001,20.851435546875003,0)" xlink:href="#ab"/><use transform="matrix(0.008173828125000001,0,0,0.008173828125000001,30.414814453125004,0)" xlink:href="#aj"/><use transform="matrix(0.008173828125000001,0,0,0.008173828125000001,39.226201171875005,0)" xlink:href="#Z"/><use transform="matrix(0.008173828125000001,0,0,0.008173828125000001,48.985751953125,0)" xlink:href="#ac"/></g><path d="M158 0v-1118h174v172h12c41-113 157-188 290-188 26 0 70 2 91 3v181c-11-2-60-10-108-10-161 0-279 109-279 260V0H158" id="ak"/><path d="M338-670V0H158v-1118h173l1 207c72-158 192-221 342-221 226 0 378 139 378 422V0H872v-695c0-172-96-275-252-275-161 0-282 109-282 300" id="al"/><g id="j"><use transform="matrix(0.008680555555555556,0,0,0.008680555555555556,0,0)" xlink:href="#T"/><use transform="matrix(0.008680555555555556,0,0,0.008680555555555556,12.986111111111112,0)" xlink:href="#U"/><use transform="matrix(0.008680555555555556,0,0,0.008680555555555556,17.291666666666668,0)" xlink:href="#V"/><use transform="matrix(0.008680555555555556,0,0,0.008680555555555556,27.951388888888893,0)" xlink:href="#W"/><use transform="matrix(0.008680555555555556,0,0,0.008680555555555556,38.46354166666667,0)" xlink:href="#X"/><use transform="matrix(0.008680555555555556,0,0,0.008680555555555556,49.34895833333334,0)" xlink:href="#af"/><use transform="matrix(0.008680555555555556,0,0,0.008680555555555556,59.32291666666667,0)" xlink:href="#ak"/><use transform="matrix(0.008680555555555556,0,0,0.008680555555555556,65.72048611111111,0)" xlink:href="#V"/><use transform="matrix(0.008680555555555556,0,0,0.008680555555555556,76.38020833333334,0)" xlink:href="#al"/><use transform="matrix(0.008680555555555556,0,0,0.008680555555555556,86.88368055555557,0)" xlink:href="#ac"/></g><g id="k"><use transform="matrix(0.008680555555555556,0,0,0.008680555555555556,0,0)" xlink:href="#T"/><use transform="matrix(0.008680555555555556,0,0,0.008680555555555556,12.986111111111112,0)" xlink:href="#U"/><use transform="matrix(0.008680555555555556,0,0,0.008680555555555556,17.291666666666668,0)" xlink:href="#ae"/><use transform="matrix(0.008680555555555556,0,0,0.008680555555555556,21.59722222222222,0)" xlink:href="#Z"/><use transform="matrix(0.008680555555555556,0,0,0.008680555555555556,31.961805555555557,0)" xlink:href="#al"/><use transform="matrix(0.008680555555555556,0,0,0.008680555555555556,42.46527777777778,0)" xlink:href="#ac"/></g><path d="M789 20c-398 0-667-293-667-764 0-473 273-766 655-766 315 0 558 198 612 487h-196c-61-191-204-311-415-311-262 0-471 207-471 590 0 380 208 588 482 588 249 0 420-165 425-427H828v-166h572v163c0 370-256 606-611 606" id="am"/><g id="l"><use transform="matrix(0.008680555555555556,0,0,0.008680555555555556,0,0)" xlink:href="#am"/><use transform="matrix(0.008680555555555556,0,0,0.008680555555555556,13.26388888888889,0)" xlink:href="#Z"/><use transform="matrix(0.008680555555555556,0,0,0.008680555555555556,23.628472222222225,0)" xlink:href="#al"/><use transform="matrix(0.008680555555555556,0,0,0.008680555555555556,34.13194444444444,0)" xlink:href="#Z"/><use transform="matrix(0.008680555555555556,0,0,0.008680555555555556,44.49652777777778,0)" xlink:href="#ak"/><use transform="matrix(0.008680555555555556,0,0,0.008680555555555556,51.189236111111114,0)" xlink:href="#aa"/><use transform="matrix(0.008680555555555556,0,0,0.008680555555555556,61.171875,0)" xlink:href="#ac"/><use transform="matrix(0.008680555555555556,0,0,0.008680555555555556,66.81423611111111,0)" xlink:href="#Z"/></g><path d="M370-1490V0H180v-1490h190" id="an"/><path d="M645 0H180v-1490h484c435 0 692 280 692 742 0 466-257 748-711 748zM370-168h263c363 0 539-218 539-580 0-358-176-574-521-574H370v1154" id="ao"/><g id="m"><use transform="matrix(0.008680555555555556,0,0,0.008680555555555556,0,0)" xlink:href="#an"/><use transform="matrix(0.008680555555555556,0,0,0.008680555555555556,4.774305555555555,0)" xlink:href="#ao"/></g><g id="n"><use transform="matrix(0.008680555555555556,0,0,0.008680555555555556,0,0)" xlink:href="#Q"/><use transform="matrix(0.008680555555555556,0,0,0.008680555555555556,11.258680555555555,0)" xlink:href="#R"/><use transform="matrix(0.008680555555555556,0,0,0.008680555555555556,28.776041666666664,0)" xlink:href="#S"/></g><path d="M180 0v-1490h190v1322h690V0H180" id="ap"/><path d="M158 0v-1118h175l1 205c55-151 181-225 313-225 147 0 245 90 285 228 53-141 190-228 352-228 194 0 352 125 352 384V0h-181v-749c0-161-105-225-225-225-151 0-243 103-243 244V0H807v-767c0-124-93-207-219-207-131 0-250 92-250 270V0H158" id="aq"/><path d="M677 24c-213 0-288-135-325-197h-20V0H158v-1490h180v551h14c37-59 106-193 324-193 279 0 474 222 474 576 0 356-194 580-473 580zm-27-161c209 0 317-186 317-421 0-232-105-413-317-413-206 0-314 166-314 413 0 249 111 421 314 421" id="ar"/><g id="o"><use transform="matrix(0.008680555555555556,0,0,0.008680555555555556,0,0)" xlink:href="#ap"/><use transform="matrix(0.008680555555555556,0,0,0.008680555555555556,10.052083333333334,0)" xlink:href="#aa"/><use transform="matrix(0.008680555555555556,0,0,0.008680555555555556,20.03472222222222,0)" xlink:href="#aq"/><use transform="matrix(0.008680555555555556,0,0,0.008680555555555556,35.607638888888886,0)" xlink:href="#ar"/><use transform="matrix(0.008680555555555556,0,0,0.008680555555555556,46.49305555555556,0)" xlink:href="#X"/><use transform="matrix(0.008680555555555556,0,0,0.008680555555555556,57.37847222222222,0)" xlink:href="#aa"/></g><linearGradient gradientUnits="userSpaceOnUse" id="p" x1="1580" y1="500" x2="1700" y2="380"><stop offset="0%" stop-color="#1b660f"/><stop offset="100%" stop-color="#6cae3e"/></linearGradient><path d="M600 0L52-1490h200c166 485 304 806 458 1336 156-533 285-846 449-1336h202L819 0H600" id="as"/><g id="q"><use transform="matrix(0.008173828125000001,0,0,0.008173828125000001,0,0)" xlink:href="#as"/><use transform="matrix(0.008173828125000001,0,0,0.008173828125000001,10.699541015625002,0)" xlink:href="#aa"/><use transform="matrix(0.008173828125000001,0,0,0.008173828125000001,20.099443359375,0)" xlink:href="#U"/><use transform="matrix(0.008173828125000001,0,0,0.008173828125000001,24.153662109375002,0)" xlink:href="#ae"/><use transform="matrix(0.008173828125000001,0,0,0.008173828125000001,28.207880859375003,0)" xlink:href="#X"/></g><g id="r"><use transform="matrix(0.008173828125000001,0,0,0.008173828125000001,0,0)" xlink:href="#af"/><use transform="matrix(0.008173828125000001,0,0,0.008173828125000001,9.882158203125002,0)" xlink:href="#ae"/><use transform="matrix(0.008173828125000001,0,0,0.008173828125000001,13.936376953125002,0)" xlink:href="#U"/><use transform="matrix(0.008173828125000001,0,0,0.008173828125000001,17.990595703125003,0)" xlink:href="#Z"/><use transform="matrix(0.008173828125000001,0,0,0.008173828125000001,27.750146484374998,0)" xlink:href="#ag"/></g><linearGradient gradientUnits="userSpaceOnUse" id="s" x1="1580" y1="260" x2="1700" y2="140"><stop offset="0%" stop-color="#1b660f"/><stop offset="100%" stop-color="#6cae3e"/></linearGradient><path d="M481 0L54-1118h197c107 314 236 620 325 951 87-331 217-637 324-951h197L670 0H481" id="at"/><g id="t"><use transform="matrix(0.008173828125000001,0,0,0.008173828125000001,0,0)" xlink:href="#an"/><use transform="matrix(0.008173828125000001,0,0,0.008173828125000001,4.495605468750001,0)" xlink:href="#al"/><use transform="matrix(0.008173828125000001,0,0,0.008173828125000001,14.140722656250002,0)" xlink:href="#at"/><use transform="matrix(0.008173828125000001,0,0,0.008173828125000001,23.467060546875004,0)" xlink:href="#aa"/><use transform="matrix(0.008173828125000001,0,0,0.008173828125000001,32.866962890625004,0)" xlink:href="#U"/><use transform="matrix(0.008173828125000001,0,0,0.008173828125000001,36.921181640625,0)" xlink:href="#ae"/><use transform="matrix(0.008173828125000001,0,0,0.008173828125000001,40.97540039062501,0)" xlink:href="#X"/></g><path fill="#3a414a" d="M370-1490V0H180v-1490h190" id="au"/><path fill="#3a414a" d="M52 0l541-1490h220L1361 0h-200l-149-416H398L254 0H52zm404-582h497c-103-290-145-390-251-756-108 377-145 460-246 756" id="av"/><path fill="#3a414a" d="M180 0v-1490h270l367 940c28 72 75 218 110 339 35-117 81-264 110-339l362-940h271V0h-187c2-448-5-837 7-1287-157 497-311 829-483 1287H842C666-458 514-784 354-1284c12 438 5 843 7 1284H180" id="aw"/><g id="u"><use transform="matrix(0.008680555555555556,0,0,0.008680555555555556,0,0)" xlink:href="#au"/><use transform="matrix(0.008680555555555556,0,0,0.008680555555555556,4.774305555555555,0)" xlink:href="#av"/><use transform="matrix(0.008680555555555556,0,0,0.008680555555555556,17.039930555555557,0)" xlink:href="#aw"/></g><path d="M338-670V0H158v-1490h180v566c73-149 190-208 336-208 226 0 379 139 379 422V0H872v-695c0-172-96-275-252-275-161 0-282 109-282 300" id="ax"/><g id="w"><use transform="matrix(0.008680555555555556,0,0,0.008680555555555556,0,0)" xlink:href="#T"/><use transform="matrix(0.008680555555555556,0,0,0.008680555555555556,12.986111111111112,0)" xlink:href="#U"/><use transform="matrix(0.008680555555555556,0,0,0.008680555555555556,17.291666666666668,0)" xlink:href="#V"/><use transform="matrix(0.008680555555555556,0,0,0.008680555555555556,27.951388888888893,0)" xlink:href="#W"/><use transform="matrix(0.008680555555555556,0,0,0.008680555555555556,38.46354166666667,0)" xlink:href="#X"/><use transform="matrix(0.008680555555555556,0,0,0.008680555555555556,49.34895833333334,0)" xlink:href="#R"/><use transform="matrix(0.008680555555555556,0,0,0.008680555555555556,65.96354166666667,0)" xlink:href="#aa"/><use transform="matrix(0.008680555555555556,0,0,0.008680555555555556,75.94618055555556,0)" xlink:href="#ac"/><use transform="matrix(0.008680555555555556,0,0,0.008680555555555556,81.58854166666667,0)" xlink:href="#ab"/><use transform="matrix(0.008680555555555556,0,0,0.008680555555555556,91.74479166666667,0)" xlink:href="#ax"/></g><path d="M763 24c-353 0-583-224-583-531v-983h190v968c0 214 149 370 393 370 243 0 391-156 391-370v-968h190v983c0 307-230 531-581 531" id="ay"/><g id="x"><use transform="matrix(0.008680555555555556,0,0,0.008680555555555556,0,0)" xlink:href="#ay"/><use transform="matrix(0.008680555555555556,0,0,0.008680555555555556,13.229166666666668,0)" xlink:href="#ad"/><use transform="matrix(0.008680555555555556,0,0,0.008680555555555556,24.114583333333336,0)" xlink:href="#U"/><use transform="matrix(0.008680555555555556,0,0,0.008680555555555556,28.420138888888893,0)" xlink:href="#V"/><use transform="matrix(0.008680555555555556,0,0,0.008680555555555556,39.25347222222223,0)" xlink:href="#aa"/><use transform="matrix(0.008680555555555556,0,0,0.008680555555555556,49.236111111111114,0)" xlink:href="#X"/></g><path d="M140 405l46-156c120 36 205 19 263-150l32-93L54-1118h197c107 313 237 620 324 950 87-331 219-637 326-950h196L606 167c-68 178-176 259-334 259-64 0-113-12-132-21" id="az"/><g id="y"><use transform="matrix(0.008680555555555556,0,0,0.008680555555555556,0,0)" xlink:href="#ar"/><use transform="matrix(0.008680555555555556,0,0,0.008680555555555556,10.538194444444446,0)" xlink:href="#az"/></g><path d="M611 442c-248 0-391-105-460-228l146-94c47 65 117 165 314 165 178 0 307-82 307-266v-224h-17C863-141 792-18 576-18c-268 0-472-195-472-546 0-346 197-568 476-568 216 0 288 133 326 193h17v-179h175V29c0 289-215 413-487 413zm-5-620c203 0 314-146 314-390 0-237-108-403-314-403-213 0-319 180-319 403 0 230 109 390 319 390" id="aA"/><path d="M798-719v166H144v-166h654" id="aB"/><g id="z"><use transform="matrix(0.008680555555555556,0,0,0.008680555555555556,0,0)" xlink:href="#ad"/><use transform="matrix(0.008680555555555556,0,0,0.008680555555555556,10.885416666666668,0)" xlink:href="#ak"/><use transform="matrix(0.008680555555555556,0,0,0.008680555555555556,17.282986111111114,0)" xlink:href="#Z"/><use transform="matrix(0.008680555555555556,0,0,0.008680555555555556,27.64756944444445,0)" xlink:href="#ag"/><use transform="matrix(0.008680555555555556,0,0,0.008680555555555556,37.03125000000001,0)" xlink:href="#ae"/><use transform="matrix(0.008680555555555556,0,0,0.008680555555555556,41.336805555555564,0)" xlink:href="#aA"/><use transform="matrix(0.008680555555555556,0,0,0.008680555555555556,52.23958333333334,0)" xlink:href="#al"/><use transform="matrix(0.008680555555555556,0,0,0.008680555555555556,62.743055555555564,0)" xlink:href="#Z"/><use transform="matrix(0.008680555555555556,0,0,0.008680555555555556,73.10763888888889,0)" xlink:href="#X"/><use transform="matrix(0.008680555555555556,0,0,0.008680555555555556,83.99305555555557,0)" xlink:href="#aB"/><use transform="matrix(0.008680555555555556,0,0,0.008680555555555556,92.1701388888889,0)" xlink:href="#W"/><use transform="matrix(0.008680555555555556,0,0,0.008680555555555556,102.68229166666669,0)" xlink:href="#ak"/><use transform="matrix(0.008680555555555556,0,0,0.008680555555555556,109.65277777777779,0)" xlink:href="#U"/></g><path fill="#333" d="M98-1322v-168h1126v168H757V0H567v-1322H98" id="aC"/><path fill="#333" d="M158 0v-1118h174v172h12c41-113 157-188 290-188 26 0 70 2 91 3v181c-11-2-60-10-108-10-161 0-279 109-279 260V0H158" id="aD"/><path fill="#333" d="M158 0v-1118h180V0H158zm91-1301c-68 0-125-53-125-119s57-119 125-119c69 0 126 53 126 119s-57 119-126 119" id="aE"/><path fill="#333" d="M611 442c-248 0-391-105-460-228l146-94c47 65 117 165 314 165 178 0 307-82 307-266v-224h-17C863-141 792-18 576-18c-268 0-472-195-472-546 0-346 197-568 476-568 216 0 288 133 326 193h17v-179h175V29c0 289-215 413-487 413zm-5-620c203 0 314-146 314-390 0-237-108-403-314-403-213 0-319 180-319 403 0 230 109 390 319 390" id="aF"/><path fill="#333" d="M628 24c-324 0-524-230-524-574 0-343 198-582 503-582 237 0 487 146 487 559v75H286c9 234 145 362 343 362 132 0 231-58 273-172l174 48C1024-91 857 24 628 24zM287-650h624c-17-190-120-322-304-322-192 0-309 151-320 322" id="aG"/><g id="A"><use transform="matrix(0.008680555555555556,0,0,0.008680555555555556,0,0)" xlink:href="#aC"/><use transform="matrix(0.008680555555555556,0,0,0.008680555555555556,10.46875,0)" xlink:href="#aD"/><use transform="matrix(0.008680555555555556,0,0,0.008680555555555556,17.439236111111114,0)" xlink:href="#aE"/><use transform="matrix(0.008680555555555556,0,0,0.008680555555555556,21.74479166666667,0)" xlink:href="#aF"/><use transform="matrix(0.008680555555555556,0,0,0.008680555555555556,32.64756944444445,0)" xlink:href="#aF"/><use transform="matrix(0.008680555555555556,0,0,0.008680555555555556,43.55034722222223,0)" xlink:href="#aG"/><use transform="matrix(0.008680555555555556,0,0,0.008680555555555556,53.914930555555564,0)" xlink:href="#aD"/></g><path d="M409 0L70-1118h191c89 329 165 560 243 925 75-353 154-601 240-925h192c85 325 161 564 235 922 77-354 157-598 244-922h191L1267 0h-179c-86-307-176-590-250-913C763-588 675-308 588 0H409" id="aH"/><g id="B"><use transform="matrix(0.008680555555555556,0,0,0.008680555555555556,0,0)" xlink:href="#ao"/><use transform="matrix(0.008680555555555556,0,0,0.008680555555555556,12.829861111111112,0)" xlink:href="#V"/><use transform="matrix(0.008680555555555556,0,0,0.008680555555555556,23.16840277777778,0)" xlink:href="#aH"/><use transform="matrix(0.008680555555555556,0,0,0.008680555555555556,37.71701388888889,0)" xlink:href="#al"/><use transform="matrix(0.008680555555555556,0,0,0.008680555555555556,48.220486111111114,0)" xlink:href="#U"/><use transform="matrix(0.008680555555555556,0,0,0.008680555555555556,52.52604166666667,0)" xlink:href="#V"/><use transform="matrix(0.008680555555555556,0,0,0.008680555555555556,63.359375000000014,0)" xlink:href="#aa"/><use transform="matrix(0.008680555555555556,0,0,0.008680555555555556,73.34201388888889,0)" xlink:href="#X"/></g><path d="M180 0v-1490h510c348 0 508 209 508 474 0 266-160 477-507 477H370V0H180zm190-706h312c236 0 327-133 327-310 0-176-91-307-329-307H370v617" id="aI"/><g id="C"><use transform="matrix(0.008680555555555556,0,0,0.008680555555555556,0,0)" xlink:href="#Q"/><use transform="matrix(0.008680555555555556,0,0,0.008680555555555556,12.265625,0)" xlink:href="#aI"/><use transform="matrix(0.008680555555555556,0,0,0.008680555555555556,23.619791666666668,0)" xlink:href="#an"/></g><g id="D"><use transform="matrix(0.008680555555555556,0,0,0.008680555555555556,0,0)" xlink:href="#am"/><use transform="matrix(0.008680555555555556,0,0,0.008680555555555556,13.26388888888889,0)" xlink:href="#aa"/><use transform="matrix(0.008680555555555556,0,0,0.008680555555555556,23.24652777777778,0)" xlink:href="#ac"/><use transform="matrix(0.008680555555555556,0,0,0.008680555555555556,28.88888888888889,0)" xlink:href="#Z"/><use transform="matrix(0.008680555555555556,0,0,0.008680555555555556,38.93229166666666,0)" xlink:href="#aH"/><use transform="matrix(0.008680555555555556,0,0,0.008680555555555556,53.48090277777778,0)" xlink:href="#aa"/><use transform="matrix(0.008680555555555556,0,0,0.008680555555555556,63.203125,0)" xlink:href="#az"/></g><path d="M180 0v-1490h270l367 940c28 72 75 218 110 339 35-117 81-264 110-339l362-940h271V0h-187c2-448-5-837 7-1287-157 497-311 829-483 1287H842C666-458 514-784 354-1284c12 438 5 843 7 1284H180" id="aJ"/><g id="E"><use transform="matrix(0.008680555555555556,0,0,0.008680555555555556,0,0)" xlink:href="#aJ"/><use transform="matrix(0.008680555555555556,0,0,0.008680555555555556,16.05902777777778,0)" xlink:href="#Z"/><use transform="matrix(0.008680555555555556,0,0,0.008680555555555556,26.423611111111118,0)" xlink:href="#ak"/><use transform="matrix(0.008680555555555556,0,0,0.008680555555555556,32.82118055555556,0)" xlink:href="#aA"/><use transform="matrix(0.008680555555555556,0,0,0.008680555555555556,43.723958333333336,0)" xlink:href="#Z"/></g><g id="F"><use transform="matrix(0.008680555555555556,0,0,0.008680555555555556,0,0)" xlink:href="#af"/><use transform="matrix(0.008680555555555556,0,0,0.008680555555555556,10.494791666666668,0)" xlink:href="#ae"/><use transform="matrix(0.008680555555555556,0,0,0.008680555555555556,14.800347222222223,0)" xlink:href="#U"/><use transform="matrix(0.008680555555555556,0,0,0.008680555555555556,19.10590277777778,0)" xlink:href="#Z"/><use transform="matrix(0.008680555555555556,0,0,0.008680555555555556,29.47048611111111,0)" xlink:href="#ag"/></g><g id="G"><use transform="matrix(0.008680555555555556,0,0,0.008680555555555556,0,0)" xlink:href="#ay"/><use transform="matrix(0.008680555555555556,0,0,0.008680555555555556,13.229166666666668,0)" xlink:href="#ad"/><use transform="matrix(0.008680555555555556,0,0,0.008680555555555556,24.114583333333336,0)" xlink:href="#U"/><use transform="matrix(0.008680555555555556,0,0,0.008680555555555556,28.420138888888893,0)" xlink:href="#V"/><use transform="matrix(0.008680555555555556,0,0,0.008680555555555556,39.25347222222223,0)" xlink:href="#aa"/><use transform="matrix(0.008680555555555556,0,0,0.008680555555555556,49.236111111111114,0)" xlink:href="#X"/></g><g id="H"><use transform="matrix(0.008680555555555556,0,0,0.008680555555555556,0,0)" xlink:href="#aI"/><use transform="matrix(0.008680555555555556,0,0,0.008680555555555556,11.354166666666668,0)" xlink:href="#ak"/><use transform="matrix(0.008680555555555556,0,0,0.008680555555555556,17.751736111111114,0)" xlink:href="#Z"/><use transform="matrix(0.008680555555555556,0,0,0.008680555555555556,28.11631944444445,0)" xlink:href="#ag"/><use transform="matrix(0.008680555555555556,0,0,0.008680555555555556,37.50000000000001,0)" xlink:href="#ae"/><use transform="matrix(0.008680555555555556,0,0,0.008680555555555556,41.805555555555564,0)" xlink:href="#aA"/><use transform="matrix(0.008680555555555556,0,0,0.008680555555555556,52.70833333333334,0)" xlink:href="#al"/><use transform="matrix(0.008680555555555556,0,0,0.008680555555555556,63.211805555555564,0)" xlink:href="#Z"/><use transform="matrix(0.008680555555555556,0,0,0.008680555555555556,73.57638888888889,0)" xlink:href="#X"/><use transform="matrix(0.008680555555555556,0,0,0.008680555555555556,84.46180555555557,0)" xlink:href="#aB"/><use transform="matrix(0.008680555555555556,0,0,0.008680555555555556,92.6388888888889,0)" xlink:href="#ay"/><use transform="matrix(0.008680555555555556,0,0,0.008680555555555556,105.86805555555557,0)" xlink:href="#Y"/><use transform="matrix(0.008680555555555556,0,0,0.008680555555555556,117.3090277777778,0)" xlink:href="#ap"/></g><linearGradient gradientUnits="userSpaceOnUse" id="I" x1="1050" y1="800" x2="1170" y2="680"><stop offset="0%" stop-color="#1b660f"/><stop offset="100%" stop-color="#6cae3e"/></linearGradient><g id="J"><use transform="matrix(0.008173828125000001,0,0,0.008173828125000001,0,0)" xlink:href="#an"/><use transform="matrix(0.008173828125000001,0,0,0.008173828125000001,4.495605468750001,0)" xlink:href="#al"/><use transform="matrix(0.008173828125000001,0,0,0.008173828125000001,14.3859375,0)" xlink:href="#aB"/><use transform="matrix(0.008173828125000001,0,0,0.008173828125000001,22.08568359375,0)" xlink:href="#aI"/><use transform="matrix(0.008173828125000001,0,0,0.008173828125000001,32.777050781250004,0)" xlink:href="#ak"/><use transform="matrix(0.008173828125000001,0,0,0.008173828125000001,38.801162109375,0)" xlink:href="#V"/><use transform="matrix(0.008173828125000001,0,0,0.008173828125000001,48.838623046875,0)" xlink:href="#ab"/><use transform="matrix(0.008173828125000001,0,0,0.008173828125000001,58.402001953125,0)" xlink:href="#Z"/><use transform="matrix(0.008173828125000001,0,0,0.008173828125000001,68.16155273437501,0)" xlink:href="#ag"/><use transform="matrix(0.008173828125000001,0,0,0.008173828125000001,76.99746093750001,0)" xlink:href="#ag"/></g><g id="K"><use transform="matrix(0.008680555555555556,0,0,0.008680555555555556,0,0)" xlink:href="#ao"/><use transform="matrix(0.008680555555555556,0,0,0.008680555555555556,12.829861111111112,0)" xlink:href="#V"/><use transform="matrix(0.008680555555555556,0,0,0.008680555555555556,23.16840277777778,0)" xlink:href="#aH"/><use transform="matrix(0.008680555555555556,0,0,0.008680555555555556,37.71701388888889,0)" xlink:href="#al"/><use transform="matrix(0.008680555555555556,0,0,0.008680555555555556,48.220486111111114,0)" xlink:href="#U"/><use transform="matrix(0.008680555555555556,0,0,0.008680555555555556,52.52604166666667,0)" xlink:href="#V"/><use transform="matrix(0.008680555555555556,0,0,0.008680555555555556,63.359375000000014,0)" xlink:href="#aa"/><use transform="matrix(0.008680555555555556,0,0,0.008680555555555556,73.34201388888889,0)" xlink:href="#X"/></g><g id="L"><use transform="matrix(0.008680555555555556,0,0,0.008680555555555556,0,0)" xlink:href="#am"/><use transform="matrix(0.008680555555555556,0,0,0.008680555555555556,13.26388888888889,0)" xlink:href="#ak"/><use transform="matrix(0.008680555555555556,0,0,0.008680555555555556,19.661458333333336,0)" xlink:href="#V"/><use transform="matrix(0.008680555555555556,0,0,0.008680555555555556,30.321180555555557,0)" xlink:href="#W"/><use transform="matrix(0.008680555555555556,0,0,0.008680555555555556,40.833333333333336,0)" xlink:href="#ad"/></g><g id="M"><use transform="matrix(0.008680555555555556,0,0,0.008680555555555556,0,0)" xlink:href="#an"/><use transform="matrix(0.008680555555555556,0,0,0.008680555555555556,4.774305555555555,0)" xlink:href="#ao"/></g><path d="M98-1322v-168h1126v168H757V0H567v-1322H98" id="aK"/><g id="N"><use transform="matrix(0.008680555555555556,0,0,0.008680555555555556,0,0)" xlink:href="#aK"/><use transform="matrix(0.008680555555555556,0,0,0.008680555555555556,10.17361111111111,0)" xlink:href="#aa"/><use transform="matrix(0.008680555555555556,0,0,0.008680555555555556,20.15625,0)" xlink:href="#ar"/><use transform="matrix(0.008680555555555556,0,0,0.008680555555555556,31.041666666666668,0)" xlink:href="#U"/><use transform="matrix(0.008680555555555556,0,0,0.008680555555555556,35.34722222222222,0)" xlink:href="#Z"/></g><path d="M126 0v-134l627-806v-11H146v-167h839v143L376-178v11h629V0H126" id="aL"/><g id="O"><use transform="matrix(0.008680555555555556,0,0,0.008680555555555556,0,0)" xlink:href="#Q"/><use transform="matrix(0.008680555555555556,0,0,0.008680555555555556,12.265625,0)" xlink:href="#aq"/><use transform="matrix(0.008680555555555556,0,0,0.008680555555555556,27.838541666666668,0)" xlink:href="#aa"/><use transform="matrix(0.008680555555555556,0,0,0.008680555555555556,37.82118055555556,0)" xlink:href="#aL"/><use transform="matrix(0.008680555555555556,0,0,0.008680555555555556,47.378472222222236,0)" xlink:href="#V"/><use transform="matrix(0.008680555555555556,0,0,0.008680555555555556,58.03819444444445,0)" xlink:href="#al"/></g><g id="P"><use transform="matrix(0.008680555555555556,0,0,0.008680555555555556,0,0)" xlink:href="#ao"/><use transform="matrix(0.008680555555555556,0,0,0.008680555555555556,12.829861111111112,0)" xlink:href="#az"/><use transform="matrix(0.008680555555555556,0,0,0.008680555555555556,22.821180555555557,0)" xlink:href="#al"/><use transform="matrix(0.008680555555555556,0,0,0.008680555555555556,33.32465277777778,0)" xlink:href="#aa"/><use transform="matrix(0.008680555555555556,0,0,0.008680555555555556,43.30729166666667,0)" xlink:href="#aq"/><use transform="matrix(0.008680555555555556,0,0,0.008680555555555556,58.88020833333334,0)" xlink:href="#V"/><use transform="matrix(0.008680555555555556,0,0,0.008680555555555556,69.53993055555557,0)" xlink:href="#ao"/><use transform="matrix(0.008680555555555556,0,0,0.008680555555555556,82.36979166666669,0)" xlink:href="#ai"/></g></defs></g></svg>